<?xml version="1.0" encoding="UTF-8" standalone="no"?>
<!-- Created with Inkscape (http://www.inkscape.org/) -->

<svg
   width="210mm"
   height="210mm"
   viewBox="0 0 210 210"
   version="1.1"
   id="svg1"
   xml:space="preserve"
   xmlns="http://www.w3.org/2000/svg"
   xmlns:svg="http://www.w3.org/2000/svg"><defs
     id="defs1" /><g
     id="layer1"
     style="fill:#ff7f7e;fill-opacity:1"><g
       id="g1"
       transform="matrix(0.396875,0,0,0.396875,-30.438091,-11.604495)"
       style="stroke:#070000;stroke-opacity:1"><path
         style="display:inline;fill:#1a2a4f;fill-opacity:1;stroke:#070000;stroke-width:1.1;stroke-opacity:1"
         d="m 236.16707,453.73509 c -2.10687,-2.10686 -9.51829,-14.70017 -14.4316,-24.52177 -5.73624,-11.46665 -9.39623,-21.03411 -12.60862,-32.95977 -2.10832,-7.82694 -2.28519,-9.39691 -2.31774,-20.57357 -0.0315,-10.79657 0.14158,-12.56861 1.60621,-16.45024 6.55616,-17.37548 23.91566,-31.37171 50.0348,-40.34093 l 4.74291,-1.6287 -6.20958,-1.61245 c -33.78502,-8.77303 -58.10543,-21.44629 -69.50049,-36.2164 -12.36996,-16.03378 -20.23263,-48.96792 -20.17774,-84.51794 0.0194,-12.56068 1.69865,-33.52698 2.94553,-36.7763 1.06131,-2.76573 26.43261,0.75046 43.21323,5.98891 16.01219,4.99855 29.47949,11.40347 43.6589,20.76376 30.76291,20.30759 53.28679,46.67549 74.2905,86.96919 5.50254,10.55612 5.7191,11.16277 6.08639,17.05 0.21021,3.36929 0.0881,6.10191 -0.27253,6.09879 -0.35934,-0.003 -1.44434,-1.40561 -2.4111,-3.11667 -3.14773,-5.57118 -10.77145,-16.85452 -17.51097,-25.9168 -23.80166,-32.00486 -49.32674,-54.47933 -78.14247,-68.80331 -14.60017,-7.25758 -33.04416,-13.35824 -44.56278,-14.7399 l -4.10727,-0.49266 -0.47606,3.47318 c -0.80561,5.87757 -0.50164,21.44799 0.62931,32.23514 1.78713,17.0461 5.20306,30.5807 10.45714,41.43333 7.27213,15.02109 28.29086,28.51912 61.40416,39.43317 16.78989,5.5339 41.39428,12.55613 56.27916,16.06239 3.12353,0.73578 5.68103,1.57899 5.68333,1.87381 0.002,0.29481 -0.90331,0.73481 -2.01248,0.97776 -5.393,1.18129 -22.59097,6.1222 -33.55,9.63879 -30.77063,9.87387 -51.28251,22.54171 -57.91344,35.76652 -1.86089,3.71136 -2.2215,5.37828 -2.46271,11.38363 -0.3562,8.86839 0.65393,15.40415 3.93177,25.43929 2.84439,8.70816 13.18281,30.1986 14.83212,30.83151 0.57098,0.21909 2.88008,-0.0139 5.13134,-0.51765 29.79472,-6.66777 51.18292,-27.30473 70.18252,-67.71746 4.1062,-8.73402 13.5984,-32.06678 13.5984,-33.42621 0,-0.44671 0.33,-0.81221 0.73333,-0.81221 0.40334,0 0.72996,0.7425 0.72582,1.65 -0.013,2.86063 -3.59691,24.84094 -5.12589,31.43753 -3.77188,16.27334 -11.79912,36.84771 -18.82137,48.24051 -14.93198,24.22542 -37.1466,38.96618 -65.87856,43.71446 -3.63,0.59991 -7.49473,1.24495 -8.58829,1.43344 -1.19142,0.20536 -2.4279,-0.0969 -3.08518,-0.75417 z m 198.67348,-0.70525 c -15.41711,-3.03141 -22.81039,-5.59405 -33.06118,-11.45957 -21.57274,-12.34396 -35.7175,-31.29391 -46.71905,-62.59029 -5.59741,-15.92309 -12.36836,-53.21746 -9.31978,-51.33332 0.40334,0.24927 0.73334,0.92875 0.73334,1.50997 0,1.6381 9.66068,25.42552 13.94858,34.34546 7.47986,15.56007 14.29845,26.65665 22.23869,36.19127 9.43035,11.32395 19.84961,19.76398 30.14411,24.41801 5.02266,2.27068 18.94223,6.571 21.24676,6.56398 1.75607,-0.005 2.54531,-1.22956 8.64311,-13.40648 8.59415,-17.16193 11.9274,-29.33066 11.46393,-41.85134 -0.36227,-9.78657 -2.31496,-14.008 -10.09333,-21.82034 -9.2229,-9.26319 -21.2954,-16.21579 -39.80502,-22.92384 -10.63909,-3.85571 -28.54803,-9.10848 -39.39435,-11.55453 -4.06586,-0.91694 -7.39248,-1.90854 -7.39248,-2.20358 0,-0.6236 0.40027,-0.74764 9.16666,-2.8409 3.63,-0.86678 8.25,-2.05126 10.26667,-2.63217 2.01667,-0.58092 10.10167,-2.882 17.96667,-5.11352 24.69438,-7.00651 39.41212,-12.2885 52.91908,-18.99193 17.11374,-8.49344 28.76202,-18.11519 33.39289,-27.58328 8.26602,-16.90039 13.29006,-48.30466 11.46952,-71.6937 l -0.47637,-6.12024 -4.10256,0.47538 c -11.14909,1.29187 -29.82597,7.45847 -44.43589,14.6715 -28.44995,14.04598 -53.75954,36.22332 -77.86307,68.22694 -4.92995,6.54576 -15.07839,21.60173 -18.1656,26.95 -1.10588,1.91584 -2.19376,3.48334 -2.4175,3.48334 -0.22373,0 -0.19212,-3.02434 0.0703,-6.72075 0.45412,-6.3977 0.70205,-7.16435 5.15805,-15.95 22.3008,-43.96928 49.52263,-74.0406 85.90107,-94.89293 19.9729,-11.44858 46.03697,-19.44408 67.66713,-20.75781 l 8.0052,-0.4862 0.47507,1.8928 c 1.33263,5.30961 2.74685,23.69929 2.74656,35.71488 -9.7e-4,42.56625 -9.95049,76.96088 -26.62858,92.05274 -13.67365,12.37316 -34.19583,21.63991 -65.80395,29.71363 l -3.25536,0.83152 7.44964,2.81099 c 22.62692,8.53787 38.02702,20.17484 44.72735,33.79788 3.86655,7.86141 4.88469,13.72291 4.37511,25.18778 -0.49566,11.15164 -2.73099,20.53975 -8.35633,35.09543 -6.09161,15.7622 -20.41166,40.96486 -23.17298,40.78346 -0.50164,-0.033 -4.87207,-0.83857 -9.71207,-1.79024 z m -95.58867,-49.60545 c -3.3714,-7.90328 -4.54939,-14.52413 -4.56727,-25.67018 -0.0155,-9.63931 0.89833,-16.52869 3.48497,-26.27423 1.81802,-6.84965 2.70073,-8.78134 3.60125,-7.88083 0.87561,0.87563 3.97315,12.71133 5.13325,19.61417 1.46948,8.7438 1.48394,21.42372 0.0327,28.6 -1.30426,6.44908 -4.16172,14.06631 -5.43606,14.49108 -0.50009,0.16671 -1.48977,-1.10078 -2.24875,-2.88001 z"
         id="path2" /><path
         style="display:inline;fill:#1a2a4f;fill-opacity:1;stroke:#070000;stroke-opacity:1"
         d="m 267.0684,403.83335 c -5.93396,-8.94371 -11.3456,-21.21248 -14.04138,-31.83334 -2.22639,-8.77158 -2.76722,-15.28804 -1.47326,-17.75149 1.86379,-3.54829 9.84729,-10.35894 16.97361,-14.48002 11.64926,-6.73665 34.91753,-15.08293 53.16743,-19.07104 3.1012,-0.6777 5.63854,-1.01309 5.63854,-0.74532 0,0.26778 -5.475,3.73966 -12.16666,7.71529 -22.86864,13.58666 -32.01311,19.91498 -40.33334,27.91221 -5.54587,5.33058 -5.64228,5.71081 -3.53606,13.94604 1.27817,4.99759 5.54734,15.141 6.37257,15.141 0.7628,0 6.23181,-3.98225 10.15322,-7.39305 11.08014,-9.63737 27.87963,-31.93154 38.70508,-51.36452 3.72299,-6.68322 3.94118,-6.92864 6.67388,-7.50668 1.55378,-0.32866 2.96831,-0.45431 3.14341,-0.27921 0.96834,0.96833 -9.20724,25.6223 -16.76775,40.62588 -10.05048,19.94483 -20.37357,33.09135 -33.13518,42.19785 -4.27227,3.04862 -13.50662,7.71973 -15.26121,7.71973 -0.49835,0 -2.34915,-2.175 -4.1129,-4.83333 z m 139.56451,2.93253 c -7.39176,-3.15274 -13.92874,-7.86169 -21.37901,-15.4005 -8.7442,-8.84812 -15.59588,-18.97156 -23.09182,-34.11843 -5.45817,-11.02921 -16.15742,-36.6416 -16.16044,-38.68565 -0.002,-1.01682 0.25277,-1.02402 3.17381,-0.0899 2.93077,0.93722 3.37426,1.38198 5.75555,5.77204 3.95675,7.29452 14.95573,24.11116 21.50573,32.88071 9.44117,12.64041 26.99292,29.1856 28.81504,27.16254 2.18283,-2.42357 7.41491,-18.65982 7.41491,-23.01006 0,-1.79502 -10.79404,-11.48829 -19.33333,-17.36174 -4.41522,-3.03685 -24.70323,-15.59832 -32.8067,-20.3125 -4.90853,-2.85554 -5.69665,-3.94658 -2.35997,-3.26708 16.95479,3.45277 37.14272,9.9479 48.61599,15.64139 9.17642,4.5537 18.82498,11.50235 22.66042,16.31946 l 2.66156,3.34278 -0.42825,4.68054 c -0.88669,9.69125 -4.34587,21.03883 -9.75905,32.01388 -3.37659,6.84592 -9.06481,15.7868 -10.25067,16.11224 -0.36667,0.10062 -2.63186,-0.65524 -5.03377,-1.67971 z M 330.03612,305.00001 c -11.80633,-14.69318 -18.52179,-22.23665 -29.99427,-33.69257 -12.10862,-12.09115 -21.31855,-19.79308 -32.04184,-26.79543 -7.36081,-4.80664 -23.8671,-13.5338 -24.46554,-12.93535 -1.27635,1.27634 3.09838,22.69567 6.37256,31.20104 1.88447,4.89529 21.55018,17.76792 49.42631,32.3531 7.8034,4.08285 12.96585,6.87187 26.4945,14.31368 2.79276,1.53624 3.60283,2.55553 2.03097,2.55553 -1.2259,0 -27.65828,-7.06901 -37.8588,-10.12486 -18.33972,-5.49417 -32.99135,-11.61537 -44.33334,-18.52171 -7.96903,-4.85248 -10.31792,-7.12992 -12.70212,-12.31579 -2.54787,-5.54184 -5.84384,-16.93424 -7.34016,-25.37098 -1.24477,-7.01845 -2.00801,-30.925 -1.15996,-36.33333 l 0.57494,-3.66667 2.31365,0.20421 c 3.93078,0.34693 14.625,4.0492 22.31365,7.72483 15.53961,7.42884 29.80279,17.8708 44.70332,32.72692 13.58541,13.54492 24.28449,27.0361 37.90674,47.79913 l 5.10983,7.78842 -0.19327,5.87825 -0.19328,5.87825 z m 15.17571,7.96549 c -0.7352,-1.27838 -0.59046,-9.63556 0.19244,-11.11143 0.44368,-0.8364 2.78994,-4.52073 5.21391,-8.18739 22.75407,-34.41944 40.79272,-53.97118 64.38183,-69.78217 12.53142,-8.39939 31.05414,-16.81136 40.25875,-18.28324 l 2.53692,-0.40567 0.4355,4.16667 c 1.11247,10.64352 0.0826,29.31676 -2.2385,40.58947 -1.81788,8.8286 -5.71524,20.68311 -7.9675,24.23454 -2.2146,3.49208 -10.88169,9.55873 -20.6637,14.46387 -6.52416,3.2715 -19.46386,8.32968 -30.6948,11.99873 -5.71779,1.86794 -42.11099,12.0178 -43.09089,12.0178 -2.29899,0 7.80466,-5.86583 36.75755,-21.34016 16.37462,-8.75167 29.77705,-17.06386 37.29451,-23.13005 4.54383,-3.66663 5.99922,-6.64776 8.7208,-17.86313 1.49698,-6.16888 3.25218,-18.28807 2.72498,-18.81527 -0.12573,-0.12573 -4.09373,1.71301 -8.81778,4.0861 -17.44609,8.76391 -30.89822,18.8679 -47.92251,35.99493 -9.669,9.72736 -15.26214,16.0928 -34.29728,39.03306 -1.35337,1.63102 -2.62427,2.68102 -2.82423,2.33334 z"
         id="path1" /></g></g></svg>
